#N canvas 133 308 469 520 12;
#N canvas 320 134 1388 906 \$0-pitchget 0;
#N canvas 398 241 1223 851 \$0-arrayplay 0;
#X obj 361 167 t f f b;
#X obj 431 198 samplerate~;
#X obj 431 223 * 0.001;
#X obj 272 404 pack f f;
#X obj 135 443 line~;
#X msg 158 412 0;
#X obj 170 599 outlet~;
#X obj 290 23 inlet;
#X text 339 24 trigger start;
#X obj 674 155 \$0;
#X obj 819 69 array define \$0-pitchdone 12;
#X obj 823 100 array define \$0-pitchloc 12;
#X obj 706 562 outlet;
#X text 764 562 done;
#X obj 596 475 del;
#X obj 400 376 t f f;
#X obj 391 260 t f f;
#X obj 455 274 > 0;
#X obj 398 329 spigot;
#X obj 273 331 spigot;
#X obj 275 297 f;
#X obj 423 519 outlet;
#X text 434 468 init;
#X msg 295 456 1;
#X msg 339 460 0;
#X obj 305 493 metro 500;
#X text 376 574 monitor;
#X obj 391 235 /;
#X obj 305 551 timer;
#X msg 572 398 stop;
#X obj 289 74 t b b b b b, f 27;
#X text 29 492 sound;
#X obj 26 581 outlet~;
#X text 182 568 readsig;
#X msg 674 180 \; \$1-pitchdone const -1 \; \$1-pitchloc const -1,
f 24;
#X obj 25 535 tabread4~ \$0-sndarray;
#X obj 361 142 array size \$0-sndarray;
#X obj 490 380 r \$0-stop;
#X obj 296 612 s \$0-elapsed_r;
#X msg 487 604 range 0 \$1;
#X obj 520 647 s \$0-progress_r;
#X obj 599 604 f;
#X obj 596 527 t b b;
#X obj 677 378 array size \$0-pitchloc;
#X obj 682 419 array size \$0-pitchdone;
#X obj 700 316 v \$0-numpitches;
#X connect 0 0 20 1;
#X connect 0 1 27 0;
#X connect 0 2 1 0;
#X connect 1 0 2 0;
#X connect 2 0 27 1;
#X connect 3 0 4 0;
#X connect 4 0 6 0;
#X connect 4 0 35 0;
#X connect 5 0 4 0;
#X connect 7 0 30 0;
#X connect 9 0 34 0;
#X connect 14 0 12 0;
#X connect 14 0 42 0;
#X connect 15 0 3 1;
#X connect 15 1 14 0;
#X connect 15 1 39 0;
#X connect 15 1 41 1;
#X connect 16 0 18 0;
#X connect 16 1 17 0;
#X connect 17 0 19 1;
#X connect 17 0 18 1;
#X connect 18 0 15 0;
#X connect 19 0 3 0;
#X connect 20 0 19 0;
#X connect 23 0 25 0;
#X connect 24 0 25 0;
#X connect 25 0 28 1;
#X connect 27 0 16 0;
#X connect 28 0 38 0;
#X connect 28 0 40 0;
#X connect 29 0 14 0;
#X connect 30 0 20 0;
#X connect 30 1 5 0;
#X connect 30 2 36 0;
#X connect 30 3 9 0;
#X connect 30 3 21 0;
#X connect 30 3 23 0;
#X connect 30 4 29 0;
#X connect 30 4 28 0;
#X connect 30 4 45 0;
#X connect 35 0 32 0;
#X connect 36 0 0 0;
#X connect 37 0 29 0;
#X connect 37 0 24 0;
#X connect 39 0 40 0;
#X connect 41 0 40 0;
#X connect 42 0 41 0;
#X connect 42 1 24 0;
#X connect 45 0 43 0;
#X connect 45 0 44 0;
#X restore 587 149 pd \$0-arrayplay;
#X obj 748 185 t b b;
#X obj 1090 189 openpanel;
#X obj 1090 214 pack s \$0;
#X obj 1090 264 soundfiler;
#N canvas 798 151 1145 944 \$0-pitchrecorder 0;
#X obj 395 42 inlet;
#X obj 207 96 inlet~;
#X text 225 70 read position;
#X text 62 69 sound;
#X obj 57 97 inlet~;
#X obj 203 193 + 0.5;
#X obj 203 218 i;
#X obj 178 446 - 60;
#X obj 203 243 change -1;
#X obj 321 316 timer, f 8;
#X obj 286 357 > 100;
#X text 246 206 round;
#X obj 118 340 snapshot~;
#X obj 196 814 i;
#X obj 241 620 t f f;
#X obj 202 731 spigot 0;
#X obj 448 304 f;
#X obj 292 259 t f b b b b;
#X obj 282 422 sel 1;
#X text 443 232 if changes in pitch > thresh (and amp is high enough)
\, output old pitch;
#X text 333 691 if not recorded yet (< 0) record position;
#X obj 389 866 array set \$0-pitchdone;
#X obj 181 874 array set \$0-pitchloc;
#X obj 202 756 t b b f;
#X msg 364 835 1;
#X obj 286 504 t f f f;
#X obj 367 537 < 12;
#X obj 313 566 &&;
#X obj 313 541 >= 0;
#X obj 248 587 spigot;
#X obj 205 151 sigmund~ -hop 4096 pitch env;
#X obj 286 656 array get \$0-pitchdone 0 1;
#X obj 286 681 < 0;
#X msg 491 178 set -1;
#X text 451 44 init;
#X obj 144 373 v \$0-offset;
#X obj 550 463 v \$0-numpitches;
#X obj 542 288 v \$0-dbthresh;
#X obj 382 428 v \$0-msthresh;
#X msg 403 72 bang;
#X obj 473 344 >= 50;
#X obj 616 49 inlet;
#X text 672 57 done;
#X text 36 302 get starting sample pos;
#X obj 286 479 i -1;
#X msg 566 174 -1;
#X obj 280 396 && 0;
#X msg 642 168 0;
#X connect 0 0 39 0;
#X connect 1 0 12 0;
#X connect 4 0 30 0;
#X connect 5 0 6 0;
#X connect 6 0 8 0;
#X connect 7 0 44 1;
#X connect 8 0 17 0;
#X connect 9 0 10 0;
#X connect 10 0 46 0;
#X connect 12 0 13 1;
#X connect 13 0 22 0;
#X connect 14 0 15 0;
#X connect 14 1 31 0;
#X connect 15 0 23 0;
#X connect 16 0 40 0;
#X connect 17 0 7 0;
#X connect 17 1 12 0;
#X connect 17 2 16 0;
#X connect 17 3 9 0;
#X connect 17 4 9 1;
#X connect 18 0 44 0;
#X connect 23 0 13 0;
#X connect 23 1 24 0;
#X connect 23 2 22 1;
#X connect 23 2 21 1;
#X connect 24 0 21 0;
#X connect 25 0 29 0;
#X connect 25 1 28 0;
#X connect 25 2 26 0;
#X connect 26 0 27 1;
#X connect 27 0 29 1;
#X connect 28 0 27 0;
#X connect 29 0 14 0;
#X connect 30 0 5 0;
#X connect 30 1 16 1;
#X connect 31 0 32 0;
#X connect 32 0 15 1;
#X connect 33 0 8 0;
#X connect 35 0 7 1;
#X connect 36 0 26 1;
#X connect 37 0 40 1;
#X connect 38 0 10 1;
#X connect 39 0 9 0;
#X connect 39 0 33 0;
#X connect 39 0 35 0;
#X connect 39 0 36 0;
#X connect 39 0 37 0;
#X connect 39 0 38 0;
#X connect 39 0 45 0;
#X connect 39 0 47 0;
#X connect 40 0 46 1;
#X connect 41 0 8 0;
#X connect 44 0 25 0;
#X connect 45 0 44 1;
#X connect 46 0 18 0;
#X connect 47 0 46 1;
#X restore 565 278 pd \$0-pitchrecorder;
#X obj 743 418 text define \$0-myoutput;
#X msg 764 310 clear;
#N canvas 417 218 1626 677 \$0-pitchtext 0;
#X obj 442 434 v \$0-offset;
#X obj 579 399 v \$0-numpitches;
#X obj 749 465 v \$0-dbthresh;
#X obj 882 387 v \$0-msthresh;
#X obj 544 566 text set \$0-myoutput, f 60;
#X obj 214 232 f;
#X obj 329 221 + 1;
#X msg 297 170 0;
#X obj 157 65 inlet;
#X text 212 65 write!;
#X obj 157 90 t b b;
#X text 395 193 line number;
#X text 726 49 sound name;
#X obj 359 423 symbol;
#X obj 1041 379 array get \$0-pitchloc;
#X obj 1046 486 list prepend pitchloc;
#X obj 349 329 sel 0 1 2 3 4 5, f 87;
#X obj 345 261 t f f f, f 21;
#X obj 629 249 > 5;
#X obj 200 164 until;
#X obj 629 274 sel 1;
#X obj 609 51 r \$0-sndname;
#X msg 442 459 list offset \$1;
#X msg 579 424 list numpitches \$1;
#X msg 757 495 list dbthresh \$1;
#X msg 890 417 list msthresh \$1;
#X connect 0 0 22 0;
#X connect 1 0 23 0;
#X connect 2 0 24 0;
#X connect 3 0 25 0;
#X connect 5 0 6 0;
#X connect 5 0 17 0;
#X connect 6 0 5 1;
#X connect 7 0 5 1;
#X connect 8 0 10 0;
#X connect 10 0 19 0;
#X connect 10 1 7 0;
#X connect 13 0 4 0;
#X connect 14 0 15 0;
#X connect 15 0 4 0;
#X connect 16 0 13 0;
#X connect 16 1 0 0;
#X connect 16 2 1 0;
#X connect 16 3 2 0;
#X connect 16 4 3 0;
#X connect 16 5 14 0;
#X connect 17 0 16 0;
#X connect 17 1 4 1;
#X connect 17 2 18 0;
#X connect 18 0 20 0;
#X connect 19 0 5 0;
#X connect 20 0 19 1;
#X connect 21 0 13 1;
#X connect 22 0 4 0;
#X connect 23 0 4 0;
#X connect 24 0 4 0;
#X connect 25 0 4 0;
#X restore 776 242 pd \$0-pitchtext;
#X obj 1096 345 array define \$0-sndarray;
#X msg 1090 239 read -resize \$1 \$2-sndarray;
#X obj 1086 84 r \$0-load;
#X obj 966 256 s \$0-sndname;
#X obj 755 144 r \$0-stop;
#X obj 594 11 r \$0-play;
#X obj 864 289 r \$0-click;
#X msg 864 314 click;
#X msg 1150 139 \; pd dsp 1;
#X obj 1086 109 t b b;
#X obj 960 320 r \$0-write;
#X obj 960 345 savepanel;
#X msg 960 370 write \$1;
#X obj 1102 489 loadbang;
#X obj 1102 514 \$0;
#X msg 1102 539 \; \$1-offset_r 60 \; \$1-numpitches_r 12 \; \$1-dbthresh_r
50 \; \$1-msthresh_r 100;
#X obj 1221 471 bng 15 250 50 0 empty empty empty 17 7 0 10 -262144
-1 -1;
#X obj 101 100 cnv 15 450 500 empty empty empty 20 12 0 20 -228856
-66577 0;
#X obj 104 465 bng 30 250 50 0 \$0-write empty write_results 35 15
0 15 -262144 -1 -1;
#X symbolatom 149 248 30 0 0 0 sound #0-sndname -, f 30;
#X obj 111 573 nbx 10 20 0 128 0 0 \$0-numpitches \$0-numpitches_r
number_of_pitches 0 -8 0 15 -262144 -1 -1 12 256;
#X obj 106 326 bng 30 250 50 0 \$0-play empty play_sound 35 15 0 15
-262144 -1 -1;
#X obj 106 282 bng 30 250 50 0 \$0-load empty load_sound 35 15 0 15
-262144 -1 -1;
#X obj 104 417 bng 30 250 50 0 \$0-click empty read_results 35 15 0
15 -262144 -1 -1;
#X obj 399 248 nbx 10 20 -1e+37 1e+37 0 0 empty \$0-elapsed_r pos_in_ms
0 -8 0 15 -232576 -1 -1 0 256;
#X obj 112 527 nbx 10 20 0 128 0 0 \$0-offset \$0-offset_r starting_midi_note
0 -8 0 15 -262144 -1 -1 60 256;
#X obj 327 573 nbx 10 20 0 128 0 0 \$0-msthresh \$0-msthresh_r ms_thresh
0 -8 0 15 -262144 -1 -1 100 256;
#X obj 328 527 nbx 10 20 0 128 0 0 \$0-dbthresh \$0-dbthresh_r db_thresh
0 -8 0 15 -262144 -1 -1 50 256;
#X obj 289 405 cnv 15 250 100 empty empty empty 20 12 0 14 -232576
-66577 0;
#X text 324 436 number of pitches to track;
#X text 346 416 set: starting midi note;
#X text 332 458 db threshold for tracking;
#X text 291 479 minimum ms length for tracking;
#X obj 100 100 cnv 15 450 125 empty empty pitchlocator_3000 20 12 0
20 -232576 -66577 0;
#X text 121 122 by Derek Kwan 2017 \, gpl v 3;
#X text 111 158 track pitches in a sound file and return locations
;
#X text 110 175 in sound in samples. -1 represents pitch not found.
;
#X obj 104 372 bng 30 250 50 0 \$0-stop empty stop_sound 35 15 0 15
-262144 -1 -1;
#X obj 488 342 tgl 50 0 empty \$0-done_r done 0 -7 0 15 -232576 -1
-1 0 1;
#X obj 591 94 t b b b, f 21;
#X obj 833 214 s \$0-done_r;
#X msg 891 174 0;
#X msg 829 184 1;
#X obj 239 287 hsl 300 30 0 90702.9 0 0 empty \$0-progress_r progress
-2 -8 0 15 -232576 -1 -1 0 1;
#X connect 0 0 5 0;
#X connect 0 1 5 1;
#X connect 0 2 5 2;
#X connect 0 3 1 0;
#X connect 1 0 8 0;
#X connect 1 1 5 3;
#X connect 1 1 51 0;
#X connect 2 0 3 0;
#X connect 2 0 12 0;
#X connect 3 0 10 0;
#X connect 7 0 6 0;
#X connect 10 0 4 0;
#X connect 11 0 18 0;
#X connect 13 0 1 0;
#X connect 13 0 50 0;
#X connect 14 0 48 0;
#X connect 15 0 16 0;
#X connect 16 0 6 0;
#X connect 18 0 2 0;
#X connect 18 1 17 0;
#X connect 19 0 20 0;
#X connect 20 0 21 0;
#X connect 21 0 6 0;
#X connect 22 0 23 0;
#X connect 23 0 24 0;
#X connect 25 0 23 0;
#X connect 48 0 0 0;
#X connect 48 1 7 0;
#X connect 48 2 50 0;
#X connect 50 0 49 0;
#X connect 51 0 49 0;
#X coords 0 -1 1 1 450 500 2 100 100;
#X restore 8 8 pd \$0-pitchget;
